<?xml version="1.0" encoding="UTF-8"?>
<svg width="1378px" height="236px" viewBox="0 0 1378 236" version="1.1" xmlns="http://www.w3.org/2000/svg" xmlns:xlink="http://www.w3.org/1999/xlink">
    <!-- Generator: Sketch 58 (84663) - https://sketch.com -->
    <title>Logo med IkonX</title>
    <desc>Created with Sketch.</desc>
    <defs>
        <linearGradient x1="0%" y1="0%" x2="98.7364477%" y2="98.7364477%" id="linearGradient-1">
            <stop stop-color="#E458FC" offset="0%"></stop>
            <stop stop-color="#7442BB" offset="100%"></stop>
        </linearGradient>
        <path d="M104.330766,33.2373736 L159.427471,33.2373736 C171.618786,33.2373736 176.039651,34.5067426 180.496613,36.8903522 C184.953576,39.2739619 188.451426,42.7718121 190.835036,47.2287747 C193.218645,51.6857372 194.488014,56.1066025 194.488014,68.2979175 L194.488014,123.394622 C194.488014,135.585937 193.218645,140.006802 190.835036,144.463765 C188.451426,148.920727 184.953576,152.418577 180.496613,154.802187 C176.039651,157.185797 171.618786,158.455166 159.427471,158.455166 L104.330766,158.455166 C92.1394514,158.455166 87.718586,157.185797 83.2616235,154.802187 C78.804661,152.418577 75.3068107,148.920727 72.9232011,144.463765 C70.5395915,140.006802 69.2702225,135.585937 69.2702225,123.394622 L69.2702225,68.2979175 C69.2702225,56.1066025 70.5395915,51.6857372 72.9232011,47.2287747 C75.3068107,42.7718121 78.804661,39.2739619 83.2616235,36.8903522 C87.718586,34.5067426 92.1394514,33.2373736 104.330766,33.2373736 Z" id="path-2"></path>
        <filter x="-13.2%" y="-8.4%" width="126.4%" height="126.4%" filterUnits="objectBoundingBox" id="filter-3">
            <feOffset dx="0" dy="6" in="SourceAlpha" result="shadowOffsetOuter1"></feOffset>
            <feGaussianBlur stdDeviation="4.5" in="shadowOffsetOuter1" result="shadowBlurOuter1"></feGaussianBlur>
            <feColorMatrix values="0 0 0 0 0   0 0 0 0 0   0 0 0 0 0  0 0 0 0.1 0" type="matrix" in="shadowBlurOuter1"></feColorMatrix>
        </filter>
        <linearGradient x1="50%" y1="0%" x2="50%" y2="100%" id="linearGradient-4">
            <stop stop-color="#F36D51" offset="0%"></stop>
            <stop stop-color="#FF7052" offset="100%"></stop>
        </linearGradient>
        <path d="M70.0065957,57.4922764 L143.682756,57.4922764 C155.874071,57.4922764 160.294936,58.7616454 164.751899,61.145255 C169.208861,63.5288647 172.706712,67.0267149 175.090321,71.4836774 C177.473931,75.9406399 178.7433,80.3615053 178.7433,92.5528202 L178.7433,166.228981 C178.7433,178.420295 177.473931,182.841161 175.090321,187.298123 C172.706712,191.755086 169.208861,195.252936 164.751899,197.636546 C160.294936,200.020155 155.874071,201.289524 143.682756,201.289524 L70.0065957,201.289524 C57.8152808,201.289524 53.3944154,200.020155 48.9374529,197.636546 C44.4804904,195.252936 40.9826401,191.755086 38.5990305,187.298123 C36.2154208,182.841161 34.9460518,178.420295 34.9460518,166.228981 L34.9460518,92.5528202 C34.9460518,80.3615053 36.2154208,75.9406399 38.5990305,71.4836774 C40.9826401,67.0267149 44.4804904,63.5288647 48.9374529,61.145255 C53.3944154,58.7616454 57.8152808,57.4922764 70.0065957,57.4922764 Z" id="path-5"></path>
        <filter x="-11.5%" y="-7.3%" width="122.9%" height="122.9%" filterUnits="objectBoundingBox" id="filter-6">
            <feOffset dx="0" dy="6" in="SourceAlpha" result="shadowOffsetOuter1"></feOffset>
            <feGaussianBlur stdDeviation="4.5" in="shadowOffsetOuter1" result="shadowBlurOuter1"></feGaussianBlur>
            <feColorMatrix values="0 0 0 0 0   0 0 0 0 0   0 0 0 0 0  0 0 0 0.15 0" type="matrix" in="shadowBlurOuter1"></feColorMatrix>
        </filter>
        <linearGradient x1="50%" y1="0%" x2="96.1102806%" y2="93.6369402%" id="linearGradient-7">
            <stop stop-color="#8F44C3" offset="0%"></stop>
            <stop stop-color="#D25D44" offset="100%"></stop>
        </linearGradient>
        <path d="M36.5120639,1.45152 L127.703232,1.45152 C139.894547,1.45152 144.315412,2.72088901 148.772375,5.10449864 C153.229337,7.48810828 156.727188,10.9859585 159.110797,15.4429211 C161.494407,19.8998836 162.763776,24.3207489 162.763776,36.5120639 L162.763776,127.703232 C162.763776,139.894547 161.494407,144.315412 159.110797,148.772375 C156.727188,153.229337 153.229337,156.727188 148.772375,159.110797 C144.315412,161.494407 139.894547,162.763776 127.703232,162.763776 L36.5120639,162.763776 C24.3207489,162.763776 19.8998836,161.494407 15.4429211,159.110797 C10.9859585,156.727188 7.48810828,153.229337 5.10449864,148.772375 C2.72088901,144.315412 1.45152,139.894547 1.45152,127.703232 L1.45152,36.5120639 C1.45152,24.3207489 2.72088901,19.8998836 5.10449864,15.4429211 C7.48810828,10.9859585 10.9859585,7.48810828 15.4429211,5.10449864 C19.8998836,2.72088901 24.3207489,1.45152 36.5120639,1.45152 Z" id="path-8"></path>
        <filter x="-10.2%" y="-6.5%" width="120.5%" height="120.5%" filterUnits="objectBoundingBox" id="filter-9">
            <feOffset dx="0" dy="6" in="SourceAlpha" result="shadowOffsetOuter1"></feOffset>
            <feGaussianBlur stdDeviation="4.5" in="shadowOffsetOuter1" result="shadowBlurOuter1"></feGaussianBlur>
            <feComposite in="shadowBlurOuter1" in2="SourceAlpha" operator="out" result="shadowBlurOuter1"></feComposite>
            <feColorMatrix values="0 0 0 0 0   0 0 0 0 0   0 0 0 0 0  0 0 0 0.2 0" type="matrix" in="shadowBlurOuter1"></feColorMatrix>
        </filter>
    </defs>
    <g id="Logo-med-IkonX" stroke="none" stroke-width="1" fill="none" fill-rule="evenodd">
        <g id="mittFravær" transform="translate(269.568000, 0.960000)">
            <path d="M442.471219,209.472 C438.888038,209.472 437.096448,207.68041 437.096448,204.097229 L437.096448,56.5896192 C437.096448,23.1465984 458.595532,0.45312 490.84416,0.45312 L517.419417,0.45312 C520.704,0.45312 522.49559,2.2447104 522.49559,5.5292928 L522.49559,29.7157632 C522.49559,33.0003456 520.704,34.791936 517.419417,34.791936 L495.323136,34.791936 C482.483404,34.791936 474.719846,43.749888 474.719846,57.4854144 L474.719846,87.6438528 L511.746048,87.6438528 C515.03063,87.6438528 516.82222,89.4354432 516.82222,92.7200256 L516.82222,116.607898 C516.82222,120.191078 515.03063,121.982669 511.746048,121.982669 L474.719846,121.982669 L474.719846,204.097229 C474.719846,207.68041 472.928256,209.472 469.643673,209.472 L442.471219,209.472 Z M539.548877,209.472 C536.264294,209.472 534.472704,207.68041 534.472704,204.097229 L534.472704,118.996685 C534.472704,81.6718848 555.971789,59.8742016 589.713408,59.8742016 L598.372761,59.8742016 C601.657344,59.8742016 603.747533,61.665792 603.747533,65.2489728 L603.747533,87.9424512 C603.747533,91.2270336 601.657344,93.018624 598.372761,93.018624 L590.907801,93.018624 C577.769472,93.018624 569.408717,101.379379 569.408717,114.816307 L569.408717,204.097229 C569.408717,207.68041 567.617126,209.472 564.332544,209.472 L539.548877,209.472 Z M667.083571,212.756582 C636.327936,212.756582 616.023245,192.451891 616.023245,162.89065 C616.023245,136.61399 635.730739,117.802291 664.694784,117.802291 L679.624704,117.802291 L679.624704,104.96256 C679.624704,96.004608 674.847129,90.03264 666.187776,90.03264 C657.229824,90.03264 653.348045,95.7060096 653.049446,103.17097 C652.750848,106.156954 650.959257,107.052749 647.674675,107.052749 L623.189606,107.052749 C619.905024,107.052749 618.113433,104.96256 618.113433,101.677978 C620.502221,74.8041216 639.015321,56.5896192 666.486374,56.5896192 C695.749017,56.5896192 714.859315,77.1929088 714.859315,107.052749 L714.859315,164.383642 C714.859315,193.347686 697.242009,212.756582 667.083571,212.756582 Z M666.486374,179.313562 C675.145728,179.313562 679.624704,173.640192 679.624704,164.68224 L679.624704,148.557926 L666.784973,148.557926 C656.931225,148.557926 651.556454,154.231296 651.556454,162.89065 C651.556454,173.042995 656.931225,179.313562 666.486374,179.313562 Z M806.8608,64.9503744 C807.457997,61.3671936 809.548186,60.1728 812.832768,60.1728 L838.810829,60.1728 C842.692608,60.1728 844.1856,62.5615872 843.289805,65.8461696 L812.235571,196.930867 C810.145382,206.187418 804.472013,210.964992 795.215462,210.964992 L777.598157,210.964992 C768.043008,210.964992 762.369638,206.187418 760.27945,196.930867 L728.926618,65.8461696 C728.329421,62.5615872 729.822413,60.1728 733.405594,60.1728 L759.980851,60.1728 C762.966835,60.1728 765.057024,61.3671936 765.654221,64.9503744 L785.958912,177.223373 L806.8608,64.9503744 Z M906.625843,213.055181 C876.168807,213.055181 856.162714,192.75049 856.162714,163.786445 C856.162714,137.211187 876.467405,118.399488 905.43145,118.399488 L919.166976,118.399488 L919.166976,104.96256 C919.166976,96.004608 914.090803,90.03264 906.028647,90.03264 C897.369293,90.03264 893.188915,95.1088128 892.591719,101.976576 C892.591719,105.261158 890.800128,105.858355 887.515546,105.858355 L863.030477,105.858355 C859.745895,105.858355 857.655706,104.066765 857.954304,100.483584 C860.044493,74.2069248 879.453389,56.5896192 906.625843,56.5896192 C918.868378,56.5896192 929.319322,61.665792 936.784282,69.7279488 C944.846439,61.665792 955.297383,56.5896192 968.137114,56.5896192 C996.80256,56.2910208 1017.40585,75.6999168 1017.40585,104.663962 C1017.40585,131.836416 997.698355,150.648115 968.137114,150.648115 L954.401587,150.648115 L954.401587,164.383642 C954.401587,173.640192 959.47776,179.61216 967.838515,179.61216 C975.303475,179.61216 979.483853,175.431782 980.678247,167.668224 C981.574042,164.383642 983.067034,162.89065 986.053018,162.89065 L1011.13528,162.89065 C1014.41987,162.89065 1016.21146,164.68224 1016.21146,167.966822 C1014.12127,195.139277 995.309568,213.055181 967.539917,213.055181 C954.998784,213.055181 945.145037,207.979008 937.680077,200.514048 C929.916519,207.979008 919.465575,213.055181 906.625843,213.055181 Z M954.401587,119.593882 L968.137114,119.593882 C977.393664,119.593882 982.171239,114.21911 982.171239,105.559757 C982.171239,95.1088128 977.095066,90.03264 968.137114,90.03264 C959.776359,90.03264 954.401587,96.004608 954.401587,104.96256 L954.401587,119.593882 Z M905.730048,179.313562 C914.389402,179.313562 919.166976,173.640192 919.166976,164.68224 L919.166976,149.155123 L906.625843,149.155123 C897.369293,149.155123 891.695923,155.127091 891.695923,163.786445 C891.695923,173.341594 897.070695,179.313562 905.730048,179.313562 Z M1044.91008,209.472 C1041.6255,209.472 1039.83391,207.68041 1039.83391,204.097229 L1039.83391,118.996685 C1039.83391,81.6718848 1061.33299,59.8742016 1095.07461,59.8742016 L1103.73397,59.8742016 C1107.01855,59.8742016 1109.10874,61.665792 1109.10874,65.2489728 L1109.10874,87.9424512 C1109.10874,91.2270336 1107.01855,93.018624 1103.73397,93.018624 L1096.26901,93.018624 C1083.13068,93.018624 1074.76992,101.379379 1074.76992,114.816307 L1074.76992,204.097229 C1074.76992,207.68041 1072.97833,209.472 1069.69375,209.472 L1044.91008,209.472 Z" id="Fravær" fill="#FF7052" fill-rule="nonzero"></path>
            <path d="M107.483174,56.0047203 C135.84679,56.0047203 154.656345,76.6000307 154.656345,106.448307 L154.656345,203.455203 C154.656345,207.036996 152.864959,208.827893 149.580751,208.827893 L125.397037,208.827893 C121.814264,208.827893 120.022878,207.036996 120.022878,203.455203 L120.022878,104.65741 C120.022878,95.4044444 115.544412,89.4347893 107.483174,89.4347893 C99.1233719,89.4347893 94.6449063,95.4044444 94.6449063,104.65741 L94.6449063,203.455203 C94.6449063,207.036996 92.85352,208.827893 89.5693119,208.827893 L65.0870333,208.827893 C61.8028252,208.827893 60.011439,207.036996 60.011439,203.455203 L60.011439,104.65741 C60.011439,95.4044444 55.5329734,89.4347893 47.1731709,89.4347893 C39.1119329,89.4347893 34.6334673,95.4044444 34.6334673,104.65741 L34.6334673,203.455203 C34.6334673,207.036996 32.842081,208.827893 29.2593086,208.827893 L5.07559434,208.827893 C1.79138624,208.827893 0,207.036996 0,203.455203 L0,106.448307 C0,76.6000307 18.8095555,56.0047203 47.1731709,56.0047203 C59.4143102,56.0047203 69.8640633,61.0789272 77.3281726,69.1379617 C84.7922819,61.0789272 95.242035,56.0047203 107.483174,56.0047203 Z M168.878405,56.0047203 C197.24202,56.0047203 216.051576,76.6000307 216.051576,106.448307 L216.051576,203.455203 C216.051576,207.036996 214.26019,208.827893 210.975982,208.827893 L186.792267,208.827893 C183.209495,208.827893 181.418109,207.036996 181.418109,203.455203 L181.418109,104.65741 C181.418109,95.4044444 176.939643,89.4347893 168.878405,89.4347893 C160.518603,89.4347893 157.086036,97.5837858 156.955794,94.7728082 C156.653752,88.2538733 154.83732,84.1261543 153.594475,81.8566923 C144.704435,65.6232823 141.716225,67.0041966 142.303957,66.4386457 C149.617877,59.4007497 157.547772,56.0047203 168.878405,56.0047203 Z M195.111818,41.5117241 C183.467807,41.5117241 175.406569,32.8557241 175.406569,21.8118621 C175.406569,10.4695172 183.467807,2.112 195.111818,2.112 C206.1587,2.112 214.817066,10.4695172 214.817066,21.8118621 C214.817066,32.2587586 206.1587,41.5117241 195.111818,41.5117241 Z M315.350326,176.724414 C318.634534,176.724414 320.42592,178.51531 320.42592,181.798621 L320.42592,204.781793 C320.42592,208.065103 318.634534,209.856 315.350326,209.856 L309.677602,209.856 C277.134086,209.856 257.130273,188.365241 257.130273,154.039724 L257.130273,91.0598621 L242.202054,91.0598621 C238.917846,91.0598621 237.12646,89.2689655 237.12646,85.9856552 L237.12646,64.4948966 C237.12646,61.2115862 238.917846,59.4206897 242.202054,59.4206897 L257.130273,59.4206897 L257.130273,20.9164138 C257.130273,17.6331034 258.921659,15.8422069 262.205867,15.8422069 L286.98671,15.8422069 C290.270918,15.8422069 292.062304,17.6331034 292.062304,20.9164138 L292.062304,59.4206897 L312.066117,59.4206897 C315.350326,59.4206897 317.141712,61.2115862 317.141712,64.4948966 L317.141712,85.9856552 C317.141712,89.2689655 315.350326,91.0598621 312.066117,91.0598621 L292.062304,91.0598621 L292.062304,154.63669 C292.062304,169.560828 298.630721,176.724414 312.364682,176.724414 L315.350326,176.724414 Z M410.028406,176.724414 C413.312614,176.724414 415.104,178.51531 415.104,181.798621 L415.104,204.781793 C415.104,208.065103 413.312614,209.856 410.028406,209.856 L404.355683,209.856 C371.812166,209.856 351.808353,188.365241 351.808353,154.039724 L351.808353,91.0598621 L336.880134,91.0598621 C333.595926,91.0598621 331.80454,89.2689655 331.80454,85.9856552 L331.80454,64.4948966 C331.80454,61.2115862 333.595926,59.4206897 336.880134,59.4206897 L351.808353,59.4206897 L351.808353,20.9164138 C351.808353,17.6331034 353.599739,15.8422069 356.883947,15.8422069 L381.66479,15.8422069 C384.948998,15.8422069 386.740385,17.6331034 386.740385,20.9164138 L386.740385,59.4206897 L406.744198,59.4206897 C410.028406,59.4206897 411.819792,61.2115862 411.819792,64.4948966 L411.819792,85.9856552 C411.819792,89.2689655 410.028406,91.0598621 406.744198,91.0598621 L386.740385,91.0598621 L386.740385,154.63669 C386.740385,169.560828 393.308801,176.724414 407.042762,176.724414 L410.028406,176.724414 Z" id="mitt-copy" fill="#7442BB"></path>
        </g>
        <g id="Ikon-X" transform="translate(-4.224000, -28.832000)">
            <g id="Kalender-ikon" transform="translate(142.110036, 142.717910) rotate(-20.000000) translate(-142.110036, -142.717910) translate(31.610036, 31.717910)">
                <g id="Rekt-2" transform="translate(131.879118, 95.846270) rotate(-40.000000) translate(-131.879118, -95.846270) ">
                    <use fill="black" fill-opacity="1" filter="url(#filter-3)" xlink:href="#path-2"></use>
                    <use fill="url(#linearGradient-1)" fill-rule="evenodd" xlink:href="#path-2"></use>
                </g>
                <g id="Rekt-1" transform="translate(106.844676, 129.390900) rotate(-20.000000) translate(-106.844676, -129.390900) ">
                    <use fill="black" fill-opacity="1" filter="url(#filter-6)" xlink:href="#path-5"></use>
                    <use fill="url(#linearGradient-4)" fill-rule="evenodd" xlink:href="#path-5"></use>
                </g>
                <g id="Hoved-rekt" transform="translate(82.107648, 82.107648) rotate(1.000000) translate(-82.107648, -82.107648) ">
                    <use fill="black" fill-opacity="1" filter="url(#filter-9)" xlink:href="#path-8"></use>
                    <path stroke="url(#linearGradient-7)" stroke-width="0.683738567" d="M36.5120639,1.79338928 C25.4485926,1.79338928 20.6130406,2.72717743 15.6041462,5.40596349 C11.2067607,7.75771098 7.75771098,11.2067607 5.40596349,15.6041462 C2.72717743,20.6130406 1.79338928,25.4485926 1.79338928,36.5120639 L1.79338928,127.703232 C1.79338928,138.766703 2.72717743,143.602255 5.40596349,148.61115 C7.75771098,153.008535 11.2067607,156.457585 15.6041462,158.809333 C20.6130406,161.488119 25.4485926,162.421907 36.5120639,162.421907 L127.703232,162.421907 C138.766703,162.421907 143.602255,161.488119 148.61115,158.809333 C153.008535,156.457585 156.457585,153.008535 158.809333,148.61115 C161.488119,143.602255 162.421907,138.766703 162.421907,127.703232 L162.421907,36.5120639 C162.421907,25.4485926 161.488119,20.6130406 158.809333,15.6041462 C156.457585,11.2067607 153.008535,7.75771098 148.61115,5.40596349 C143.602255,2.72717743 138.766703,1.79338928 127.703232,1.79338928 L36.5120639,1.79338928 Z" stroke-linejoin="square" fill="#FFFFFF" fill-rule="evenodd"></path>
                </g>
                <g id="Innhold" transform="translate(3.386880, 24.675840)">
                    <path d="M95.7207441,58.3680384 L125.573082,89.2641641 C130.165749,94.0655891 129.956992,101.789621 125.155567,106.591045 C122.859233,108.887379 119.727869,109.931167 116.596505,109.931167 C113.465141,109.931167 110.333777,108.678622 107.828685,106.17353 L78.6026203,75.9036773 L49.7940707,105.756015 C47.497737,108.261106 44.3663729,109.513652 41.0262512,109.513652 C38.1036447,109.513652 34.9722806,108.469864 32.4671893,106.17353 C27.6657644,101.372105 27.4570068,93.6480739 32.2584317,88.8466489 L61.6932542,58.3680384 L32.0496741,27.6806703 C27.4570068,22.6704877 27.4570068,14.9464563 32.4671893,10.3537889 C37.2686143,5.55236398 44.9926457,5.76112159 49.7940707,10.5625465 L78.6026203,40.6236419 L108.037443,10.1450313 C112.63011,5.34360637 120.354142,5.13484877 125.364324,9.93627372 C130.165749,14.5289411 130.374507,22.2529725 125.573082,27.263155 L95.7207441,58.3680384 Z" id="x" fill="#7442BB"></path>
                    <rect id="Shadow" fill-opacity="0.149937726" fill="#FFFFFF" x="2.09183781e-11" y="1.36424205e-11" width="159.18336" height="58.54464"></rect>
                </g>
            </g>
        </g>
    </g>
</svg>